<?xml version="1.0" encoding="UTF-8"?>
<svg xmlns="http://www.w3.org/2000/svg" id="filled_outline" data-name="filled outline" viewBox="0 0 512 512" width="512" height="512"><path d="M194.342,328H160V312h34.342A37.7,37.7,0,0,0,232,274.342V240a8,8,0,0,1,8-8h31.458A32.58,32.58,0,0,0,304,199.458V168a8,8,0,0,1,8-8h23.493A24.535,24.535,0,0,0,360,135.493V112a8,8,0,0,1,8-8h24.1A15.918,15.918,0,0,0,408,88.1V62.822h16V88.1A31.935,31.935,0,0,1,392.1,120H376v15.493A40.552,40.552,0,0,1,335.493,176H320v23.458A48.6,48.6,0,0,1,271.458,248H248v26.342A53.719,53.719,0,0,1,194.342,328Z" style="fill:#e0c999"/><path d="M480,368v12a12,12,0,0,1-24,0V32H440V380a12,12,0,0,1-24,0V368H400v12a27.981,27.981,0,0,0,48,19.569A27.981,27.981,0,0,0,496,380V368Z" style="fill:#e0c999"/><path d="M149.657,341.657l-11.314-11.314L442.564,25.859a8,8,0,0,1,11.554.251h0a8,8,0,0,1-.24,11.064Z" style="fill:#b56b29"/><rect x="432" y="296" width="32" height="48" rx="16" style="fill:#dc4a2c"/><path d="M456,298.158V312a15.98,15.98,0,0,1-24,13.842V328a16,16,0,0,0,32,0V312A15.98,15.98,0,0,0,456,298.158Z" style="fill:#b23824"/><path d="M148.41,364,52.971,459.029a16.97,16.97,0,0,1-24,0h0a16.97,16.97,0,0,1,0-24L124.41,340Z" style="fill:#8f5521"/><path d="M138.405,354,44.971,447.029a16.961,16.961,0,0,1-20.765,2.513,16.947,16.947,0,0,0,28.765,9.487L148.41,364Z" style="fill:#603714"/><rect x="131.439" y="325.203" width="33.941" height="46.413" transform="translate(-202.895 206.988) rotate(-45)" style="fill:#475784"/><circle cx="184" cy="384" r="32" style="fill:#393e4f"/><circle cx="184" cy="384" r="16" style="fill:#b0c0ea"/><polygon points="260.686 392 232 420.686 189.657 378.343 178.343 389.657 220.687 432 192 460.685 203.314 472 271.314 404 260.686 392" style="fill:#b0c0ea"/><circle cx="272" cy="392" r="16" style="fill:#393e4f"/><circle cx="192" cy="472" r="16" style="fill:#393e4f"/><path d="M480,380a12,12,0,0,1-24,0V350.624A24.039,24.039,0,0,0,472,328V312a24.039,24.039,0,0,0-16-22.624V32a8,8,0,0,0-13.657-5.657L152,316.686l-2.343-2.343a8,8,0,0,0-11.314,0l-24,24-91.03,91.029a24.971,24.971,0,0,0,35.315,35.315L144,379.314l.251.252A39.962,39.962,0,0,0,184,424a39.756,39.756,0,0,0,22.042-6.644L220.687,432,202.34,450.345a24.009,24.009,0,1,0,11.315,11.315l48.005-48.005a24.009,24.009,0,1,0-11.315-11.315L232,420.686l-14.644-14.644A39.973,39.973,0,0,0,184,344a40.335,40.335,0,0,0-4.434.251L163.314,328h31.028A53.719,53.719,0,0,0,248,274.342V248h23.458A48.6,48.6,0,0,0,320,199.458V176h15.493A40.552,40.552,0,0,0,376,135.493V120h16.1A31.935,31.935,0,0,0,424,88.1V67.313l16-16V289.376A24.039,24.039,0,0,0,424,312v16a24.039,24.039,0,0,0,16,22.624V380a12,12,0,0,1-24,0V368H400v12a27.981,27.981,0,0,0,48,19.569A27.981,27.981,0,0,0,496,380V368H480ZM192,480a8,8,0,1,1,8-8A8.009,8.009,0,0,1,192,480Zm80-96a8,8,0,1,1-8,8A8.009,8.009,0,0,1,272,384ZM47.313,453.372a8.97,8.97,0,1,1-12.685-12.685L120,355.314,132.686,368ZM208,384a23.856,23.856,0,0,1-2.345,10.34l-16-16-11.314,11.314,16,16A24,24,0,1,1,208,384Zm-57.892-21.206L131.313,344,144,331.313l18.794,18.8A40.309,40.309,0,0,0,150.108,362.794ZM194.342,312H179.314L232,259.314v15.028A37.7,37.7,0,0,1,194.342,312Zm77.116-80H259.314L304,187.314v12.144A32.58,32.58,0,0,1,271.458,232Zm64.035-72h-4.179L360,131.314v4.179A24.535,24.535,0,0,1,335.493,160ZM408,88.1A15.918,15.918,0,0,1,392.1,104h-4.787L408,83.313ZM440,312a8,8,0,0,1,16,0v16a8,8,0,0,1-16,0Z"/></svg>
